<svg xmlns="http://www.w3.org/2000/svg" viewBox="0 0 16 16">
    <defs>
        <style>
            .interior{fill:url(#gradient-light-theme);}
            .exterior{fill:#231f20;}
            @media (prefers-color-scheme: dark) {
                .interior{fill:url(#gradient-dark-theme);}
                .exterior{fill:#f1f2f2;}
            }
        </style>
        <linearGradient id="gradient-light-theme" x1="3.30886" y1="3.38765" x2="12.69426" y2="12.77304" gradientUnits="userSpaceOnUse">
            <stop offset="0" stop-color="#ffb5fb"/><stop offset="1" stop-color="#82a3ff"/>
        </linearGradient>
        <linearGradient id="gradient-dark-theme" x1="3.30886" y1="3.38765" x2="12.69426" y2="12.77304" gradientUnits="userSpaceOnUse">
            <stop offset="0" stop-color="#ff82f9"/><stop offset="1" stop-color="#4369ff"/>
        </linearGradient>
    </defs>
    <path class="exterior" d="M7.99995,.14286c-.3597,0-.71347,.09681-1.02307,.27996L2.01764,3.35669c-.62771,.37138-1.01764,1.05512-1.01764,1.78442v5.87821c0,.72742,.38837,1.41034,1.01356,1.78227l3.5312,2.10022c.23926,.14005,.50486,.21218,.77417,.21218,.16468,0,.32585-.02691,.47808-.07755,.15217,.2246,.35416,.41684,.59753,.56179,.29174,.17075,.61597,.25892,.94429,.25892,.33148,0,.65765-.08928,.94325-.25819l4.71423-2.80325c.61913-.36825,1.00369-1.04439,1.00369-1.76461V5.12998c0-.72239-.38623-1.3997-1.00797-1.76762L9.02305,.42282c-.30967-.18317-.66343-.27996-1.0231-.27996h0Z"/>
    <path class="interior" d="M14,11.03109c0,.37135-.19563,.71526-.51479,.90509l-4.71219,2.80204c-.13405,.07928-.2837,.11892-.43419,.11892-.14965,0-.29853-.03964-.43258-.11808-.27055-.16113-.43258-.44788-.43258-.76925v-4.77234c0-.09052-.04771-.17429-.12556-.2205l-.80208-.47586c-.24998-.15181-.33303-.48286-.18499-.7393,.14636-.25602,.46708-.34415,.72118-.19019l.93666,.56764c.31503,.19091,.50743,.53249,.50743,.90085v4.43997c0,.06906,.07522,.11187,.13453,.07653l4.1708-2.48031c.07785-.04628,.1255-.13022,.12532-.2208l-.00933-5.56814c-.00018-.09064-.04819-.17447-.12628-.22044l-4.70041-2.76951c-.08221-.04837-.18427-.04819-.26624,.00054L3.16841,5.08377c-.07791,.04628-.12556,.13022-.12538,.2208l.00933,5.5688c.00018,.09046,.04801,.17417,.12592,.22026l3.40561,2.01413c.25165,.15013,.33715,.47993,.19163,.73804-.14642,.25811-.46875,.34331-.71957,.19653l-3.53111-2.10017c-.32543-.1936-.52483-.5442-.52483-.92285V5.14111c0-.37936,.20029-.73057,.52681-.92375L7.48605,1.28348c.31694-.1875,.71084-.1875,1.02784,0l4.96887,2.93949c.32059,.18971,.51724,.53452,.51724,.90701v5.90111Zm-5.26333-4.41097c0,.41733-.32992,.75574-.73685,.75574-.40699,0-.73685-.33835-.73685-.75574s.32986-.7558,.73685-.7558c.40693,0,.73685,.33841,.73685,.7558Z"/>
</svg>