<svg xmlns="http://www.w3.org/2000/svg" viewBox="0 0 16 16">
  <style>
    path { fill: url(#gradient-light-theme); }
    @media (prefers-color-scheme: dark) {
      path { fill: url(#gradient-dark-theme); }
    }
  </style>
  <defs>
    <linearGradient id="gradient-dark-theme" x1="3.30886" y1="3.38765" x2="12.69426" y2="12.77304" gradientUnits="userSpaceOnUse">
      <stop offset="0" stop-color="#ffb5fb"/>
      <stop offset="1" stop-color="#82a3ff"/>
    </linearGradient>
    <linearGradient id="gradient-light-theme" x1="3.30886" y1="3.38765" x2="12.69426" y2="12.77304" gradientUnits="userSpaceOnUse">
      <stop offset="0" stop-color="#f848f6"/>
      <stop offset="1" stop-color="#354fff"/>
    </linearGradient>
  </defs>

  <path d="M15.0929,4.72681v6.73682c0,.48126-.26105,.93237-.68268,1.17798l-5.43134,3.198c-.18573,.10522-.39154,.1604-.59235,.1604s-.40161-.05518-.58228-.1604c-.36646-.21558-.58228-.5965-.58228-1.02759v-5.4436c0-.0401-.02509-.08521-.06531-.11023l-.92365-.54138c-.3714-.22559-.49188-.70679-.271-1.0777,.1355-.2356,.39148-.38599,.6676-.38599,.14056,0,.28113,.0401,.40155,.11029l1.07922,.65161c.41162,.24561,.66766,.69171,.66766,1.17297v4.9574l4.70343-2.78198c.04022-.02008,.06024-.06018,.06024-.10529l-.01001-6.35083c0-.04517-.02509-.08527-.06024-.11029L8.05017,1.6391c-.02002-.01508-.0451-.02008-.06525-.02008-.02509,0-.05017,.005-.06525,.02008L2.51343,4.81702c-.04016,.02509-.06018,.06519-.06018,.10529l.01001,6.3609c0,.0401,.02509,.0802,.06024,.10529l.14557,.08521,2.84113,1.65912,.09039,.06018c.06024,.05011,.11041,.10529,.15057,.17041,.17572,.24561,.20081,.57642,.04517,.85211-.1405,.24567-.39148,.40106-.67261,.40106-.1004,0-.20081-.02008-.29114-.06018h-.00507l-2.74573-1.61908-.34137-.20044-.14557-.08527c-.15057-.09021-.27606-.2005-.38153-.33582-.19574-.2406-.30621-.54639-.30621-.86719V4.73682c0-.49121,.26611-.95239,.69275-1.203L7.31732,.18542c.21082-.1203,.44678-.18542,.68268-.18542s.47186,.06512,.67767,.18542l5.73254,3.35339c.42163,.25067,.68268,.70178,.68268,1.18799Zm-7.09271,1.72821c.56439,0,1.02374-.4635,1.02374-1.03314,0-.56989-.45935-1.03333-1.02374-1.03333-.5647,0-1.02405,.46344-1.02405,1.03333,0,.56964,.45935,1.03314,1.02405,1.03314Z"/>
</svg>
